# xmcd
#
# Track frame offsets: 
#        150
#        17787
#        31685
#        44745
#        58447
#        74665
#        96192
#        114962
#        134985
#        146307
#        159672
#        179132
#        192182
#
# Disc length: 2939 seconds
#
# Revision: 0
# Processed by: cddbd v1.4PL0 Copyright (c) Steve Scherf et al.
# Submitted via: ExactAudioCopy v0.90b4
#
DISCID=ca0b790d
DTITLE=Glen Moffatt - A Place To Play
DYEAR=1998
DGENRE=Country
TTITLE0=Radio Radio
TTITLE1=The Least You Could Do
TTITLE2=Rachel
TTITLE3=Daisy's Chain
TTITLE4=Tearing My Old Heart Down
TTITLE5=A Place To Play
TTITLE6=Hotel Room
TTITLE7=The Place
TTITLE8=English Rose
TTITLE9=My Plane
TTITLE10=Praying For Rain
TTITLE11=The Course Of True Love
TTITLE12=There Ain't No TV Show Like This
EXTD=
EXTT0=
EXTT1=
EXTT2=
EXTT3=
EXTT4=
EXTT5=
EXTT6=
EXTT7=
EXTT8=
EXTT9=
EXTT10=
EXTT11=
EXTT12=
PLAYORDER=
